<svg xmlns="http://www.w3.org/2000/svg" width="512" height="512" viewBox="0 0 512 512" role="img" aria-label="오늘분량"><title>오늘분량</title><rect width="512" height="512" fill="#ffffff"/><g transform="translate(76,70) scale(3.6)" stroke-linejoin="round"><rect x="7" y="15" width="86" height="80" rx="20" fill="#3d64a3" stroke="#2b3440" stroke-width="3"/><rect x="7" y="9" width="86" height="80" rx="20" fill="#4f7cc2" stroke="#2b3440" stroke-width="3"/><rect x="15" y="17" width="70" height="64" rx="12" fill="#ffffff"/><path d="M15 29a12 12 0 0 1 12-12h46a12 12 0 0 1 12 12v6H15z" fill="#4f7cc2"/><path d="M15 35h70" stroke="#2b3440" stroke-width="3"/><rect x="15" y="17" width="70" height="64" rx="12" fill="none" stroke="#2b3440" stroke-width="3.5"/><ellipse cx="32" cy="22" rx="4.2" ry="3.4" fill="#2b3440"/><ellipse cx="68" cy="22" rx="4.2" ry="3.4" fill="#2b3440"/><rect x="29" y="2" width="6" height="21" rx="3" fill="#c7ccd3" stroke="#2b3440" stroke-width="2.4"/><rect x="65" y="2" width="6" height="21" rx="3" fill="#c7ccd3" stroke="#2b3440" stroke-width="2.4"/><path d="M35 57l10 9 20-20" fill="none" stroke="#4f7cc2" stroke-width="8.5" stroke-linecap="round"/></g></svg>
